<?xml version="1.0" encoding="UTF-8" standalone="no"?>
<!-- Uploaded to: SVG Repo, www.svgrepo.com, Generator: SVG Repo Mixer Tools -->

<svg
   width="800px"
   height="800px"
   viewBox="0 0 24 24"
   fill="none"
   version="1.1"
   id="svg1"
   sodipodi:docname="google.svg"
   inkscape:version="1.3.2 (091e20ef0f, 2023-11-25, custom)"
   xmlns:inkscape="http://www.inkscape.org/namespaces/inkscape"
   xmlns:sodipodi="http://sodipodi.sourceforge.net/DTD/sodipodi-0.dtd"
   xmlns="http://www.w3.org/2000/svg"
   xmlns:svg="http://www.w3.org/2000/svg">
  <defs
     id="defs1" />
  <sodipodi:namedview
     id="namedview1"
     pagecolor="#505050"
     bordercolor="#eeeeee"
     borderopacity="1"
     inkscape:showpageshadow="0"
     inkscape:pageopacity="0"
     inkscape:pagecheckerboard="0"
     inkscape:deskcolor="#505050"
     inkscape:zoom="1.005"
     inkscape:cx="400"
     inkscape:cy="400"
     inkscape:window-width="1920"
     inkscape:window-height="1008"
     inkscape:window-x="0"
     inkscape:window-y="0"
     inkscape:window-maximized="1"
     inkscape:current-layer="svg1" />
  <path
     fill-rule="evenodd"
     clip-rule="evenodd"
     d="M2 3.65629C2 2.15127 3.59967 1.18549 4.93149 1.88645L20.7844 10.2301C22.2091 10.9799 22.2091 13.0199 20.7844 13.7698L4.9315 22.1134C3.59968 22.8144 2 21.8486 2 20.3436V3.65629ZM19.8529 11.9999L16.2682 10.1132L14.2243 11.9999L16.2682 13.8866L19.8529 11.9999ZM14.3903 14.875L12.75 13.3608L6.75782 18.8921L14.3903 14.875ZM12.75 10.639L14.3903 9.12488L6.75782 5.10777L12.75 10.639ZM4 5.28391L11.2757 11.9999L4 18.7159V5.28391Z"
     fill="#0F0F0F"
     id="path1"
     style="fill:#ffffff" />
</svg>
